<svg id="Layer_2" data-name="Layer 2" xmlns="http://www.w3.org/2000/svg" viewBox="0 0 144 216"><defs><style>.cls-1{fill:#ee3158;}.cls-2{fill:#f06185;}.cls-3{fill:#f493ad;}</style></defs><title>logo</title><g id="Layer_5" data-name="Layer 5"><path class="cls-1" d="M0,72H72a0,0,0,0,1,0,0V216a0,0,0,0,1,0,0H36.93A36.93,36.93,0,0,1,0,179.07V72A0,0,0,0,1,0,72Z"/><path class="cls-2" d="M0,72H72a0,0,0,0,1,0,0v72a0,0,0,0,1,0,0H36.93A36.93,36.93,0,0,1,0,107.07V72A0,0,0,0,1,0,72Z"/><path class="cls-3" d="M-1008-72h72a0,0,0,0,1,0,0V0a0,0,0,0,1,0,0h-35.07A36.93,36.93,0,0,1-1008-36.93V-72A0,0,0,0,1-1008-72Z" transform="translate(144 -864) rotate(-90)"/><path class="cls-1" d="M-1080-144h144a0,0,0,0,1,0,0v72a0,0,0,0,1,0,0h-107.07A36.93,36.93,0,0,1-1080-108.93V-144A0,0,0,0,1-1080-144Z" transform="translate(-936 -72) rotate(180)"/><path class="cls-3" d="M-1080-144h72a0,0,0,0,1,0,0v72a0,0,0,0,1,0,0h-35.07A36.93,36.93,0,0,1-1080-108.93V-144A0,0,0,0,1-1080-144Z" transform="translate(-1008 -72) rotate(180)"/></g></svg>